<svg width="49" height="48" viewBox="0 0 49 48" fill="none" xmlns="http://www.w3.org/2000/svg">
<g clip-path="url(#clip0_207_3676)">
<path d="M41.75 20.25C41.2848 20.2506 40.8312 20.395 40.4513 20.6636C40.0714 20.9321 39.7839 21.3116 39.6283 21.75H37.7765C37.4695 20.1435 36.8367 18.6169 35.9172 17.2642L37.2268 15.9548C38.051 16.3493 39.1213 16.182 39.788 15.5145C40.2125 15.0893 40.4473 14.5245 40.4473 13.923C40.4473 13.3222 40.2132 12.7568 39.788 12.3323L37.667 10.2105C37.2444 9.78956 36.6723 9.55321 36.0759 9.55321C35.4794 9.55321 34.9073 9.78956 34.4847 10.2105C34.1562 10.5399 33.9375 10.9629 33.8588 11.4214C33.7802 11.88 33.8453 12.3517 34.0452 12.7717L32.7357 14.082C31.383 13.1628 29.8564 12.5301 28.25 12.2228V10.371C28.6884 10.2153 29.0679 9.92782 29.3364 9.54796C29.605 9.16809 29.7494 8.71446 29.75 8.24925C29.75 7.00875 28.7405 5.99925 27.5 5.99925H24.5C23.2595 5.99925 22.25 7.00875 22.25 8.24925C22.25 9.22725 22.877 10.0612 23.75 10.371V12.2228C22.43 12.4768 21.1623 12.9514 20 13.6268V11.25C20 10.0095 18.9905 9 17.75 9H16.25V6C16.25 5.17275 15.5765 4.5 14.75 4.5H14V0.75C14 0.551088 13.921 0.360322 13.7803 0.21967C13.6397 0.0790176 13.4489 0 13.25 0C13.0511 0 12.8603 0.0790176 12.7197 0.21967C12.579 0.360322 12.5 0.551088 12.5 0.75V4.5H11.75C10.9227 4.5 10.25 5.17275 10.25 6V9H8.75C7.5095 9 6.5 10.0095 6.5 11.25V34.638C6.06252 34.7921 5.68346 35.0778 5.41488 35.456C5.14631 35.8341 5.00138 36.2862 5 36.75C5 37.9905 6.0095 39 7.25 39H9.5V43.5H8.75C7.5095 43.5 6.5 44.5095 6.5 45.75C6.5 46.9905 7.5095 48 8.75 48H17.75C18.9905 48 20 46.9905 20 45.75C20 44.5095 18.9905 43.5 17.75 43.5H17V39H19.25C20.4905 39 21.5 37.9905 21.5 36.75C21.4985 36.2862 21.3535 35.8342 21.085 35.4561C20.8164 35.078 20.4374 34.7922 20 34.638V34.3725C21.1624 35.0475 22.4301 35.5221 23.75 35.7765V37.6283C23.3116 37.7839 22.9321 38.0714 22.6636 38.4513C22.395 38.8312 22.2506 39.2848 22.25 39.75C22.25 40.9905 23.2595 42 24.5 42H27.5C28.7405 42 29.75 40.9905 29.75 39.75C29.7494 39.2848 29.605 38.8312 29.3364 38.4513C29.0679 38.0714 28.6884 37.7839 28.25 37.6283V35.7765C29.8565 35.4695 31.3831 34.8367 32.7357 33.9173L34.0452 35.2275C33.8454 35.6476 33.7803 36.1193 33.859 36.5778C33.9377 37.0363 34.1563 37.4593 34.4847 37.7887C34.9073 38.2097 35.4794 38.446 36.0759 38.446C36.6723 38.446 37.2444 38.2097 37.667 37.7887L39.788 35.6677C40.2125 35.2425 40.4473 34.6777 40.4473 34.077C40.4473 33.4762 40.2132 32.9107 39.788 32.4862C39.1213 31.8187 38.051 31.6508 37.2268 32.046L35.9172 30.7365C36.8364 29.3837 37.4691 27.8571 37.7765 26.2507H39.6283C39.7839 26.6891 40.0714 27.0686 40.4513 27.3372C40.8312 27.6057 41.2848 27.7502 41.75 27.7507C42.9905 27.7507 44 26.7412 44 25.5007V22.5007C43.9994 21.9041 43.7622 21.3321 43.3404 20.9102C42.9186 20.4882 42.3466 20.2508 41.75 20.25ZM11.75 6H14.75V9H11.75V6ZM8.75 10.5H17.75C18.164 10.5 18.5 10.8368 18.5 11.25V34.5H8V11.25C8 10.8368 8.336 10.5 8.75 10.5ZM18.5 45.75C18.5 46.1632 18.164 46.5 17.75 46.5H8.75C8.55689 46.4914 8.37455 46.4086 8.24096 46.2689C8.10736 46.1292 8.0328 45.9433 8.0328 45.75C8.0328 45.5567 8.10736 45.3708 8.24096 45.2311C8.37455 45.0914 8.55689 45.0086 8.75 45H17.75C18.164 45 18.5 45.3368 18.5 45.75ZM15.5 43.5H11V39H15.5V43.5ZM19.25 37.5H7.25C7.05689 37.4914 6.87455 37.4086 6.74096 37.2689C6.60736 37.1292 6.5328 36.9433 6.5328 36.75C6.5328 36.5567 6.60736 36.3708 6.74096 36.2311C6.87455 36.0914 7.05689 36.0086 7.25 36H19.25C19.4431 36.0086 19.6254 36.0914 19.759 36.2311C19.8926 36.3708 19.9672 36.5567 19.9672 36.75C19.9672 36.9433 19.8926 37.1292 19.759 37.2689C19.6254 37.4086 19.4431 37.4914 19.25 37.5ZM42.5 25.5C42.4914 25.6931 42.4086 25.8754 42.2689 26.009C42.1292 26.1426 41.9433 26.2172 41.75 26.2172C41.5567 26.2172 41.3708 26.1426 41.2311 26.009C41.0914 25.8754 41.0086 25.6931 41 25.5C41 25.3011 40.921 25.1103 40.7803 24.9697C40.6397 24.829 40.4489 24.75 40.25 24.75H37.139C36.9573 24.75 36.7817 24.8161 36.645 24.9358C36.5083 25.0556 36.4197 25.2209 36.3958 25.401C36.1532 27.2045 35.445 28.9136 34.3407 30.36C34.2305 30.5044 34.1765 30.6839 34.1886 30.8651C34.2008 31.0464 34.2783 31.2171 34.4067 31.3455L36.608 33.5467C36.6775 33.6168 36.7602 33.6723 36.8512 33.7102C36.9423 33.7481 37.04 33.7677 37.1386 33.7677C37.2373 33.7677 37.3349 33.7481 37.426 33.7102C37.5171 33.6723 37.5997 33.6168 37.6693 33.5467C37.812 33.4104 38.0019 33.3343 38.1993 33.3345C38.3967 33.3346 38.5864 33.4109 38.729 33.5475C38.799 33.6169 38.8545 33.6995 38.8922 33.7905C38.9299 33.8816 38.9491 33.9792 38.9487 34.0778C38.949 34.1763 38.9297 34.2739 38.892 34.3649C38.8543 34.4559 38.7989 34.5385 38.729 34.608L36.608 36.729C36.4659 36.8629 36.2772 36.9361 36.082 36.9332C35.8868 36.9303 35.7004 36.8515 35.5623 36.7134C35.4243 36.5754 35.3454 36.389 35.3425 36.1937C35.3396 35.9985 35.4129 35.8099 35.5467 35.6677C35.6165 35.5982 35.6718 35.5155 35.7095 35.4245C35.7472 35.3335 35.7667 35.236 35.7667 35.1375C35.7667 35.039 35.7472 34.9415 35.7095 34.8505C35.6718 34.7595 35.6165 34.6768 35.5467 34.6073L33.3462 32.4067C33.218 32.2782 33.0475 32.2006 32.8663 32.1885C32.6851 32.1763 32.5057 32.2304 32.3615 32.3407C30.9149 33.445 29.2055 34.1533 27.4017 34.3958C27.2215 34.4196 27.056 34.5081 26.9361 34.6448C26.8162 34.7815 26.7501 34.9572 26.75 35.139V38.25C26.75 38.4489 26.829 38.6397 26.9697 38.7803C27.1103 38.921 27.3011 39 27.5 39C27.6931 39.0086 27.8754 39.0914 28.009 39.2311C28.1426 39.3708 28.2172 39.5567 28.2172 39.75C28.2172 39.9433 28.1426 40.1292 28.009 40.2689C27.8754 40.4086 27.6931 40.4914 27.5 40.5H24.5C24.3069 40.4914 24.1246 40.4086 23.991 40.2689C23.8574 40.1292 23.7828 39.9433 23.7828 39.75C23.7828 39.5567 23.8574 39.3708 23.991 39.2311C24.1246 39.0914 24.3069 39.0086 24.5 39C24.6989 39 24.8897 38.921 25.0303 38.7803C25.171 38.6397 25.25 38.4489 25.25 38.25V35.139C25.25 34.9574 25.1841 34.7819 25.0645 34.6452C24.9449 34.5086 24.7798 34.4199 24.5998 34.3958C22.9447 34.171 21.3675 33.5533 20 32.5942V15.4065C21.3673 14.4471 22.9446 13.8293 24.5998 13.605C24.9718 13.5547 25.25 13.2368 25.25 12.861V9.75C25.25 9.55109 25.171 9.36032 25.0303 9.21967C24.8897 9.07902 24.6989 9 24.5 9C24.3069 8.99136 24.1246 8.90857 23.991 8.76886C23.8574 8.62916 23.7828 8.4433 23.7828 8.25C23.7828 8.0567 23.8574 7.87084 23.991 7.73114C24.1246 7.59143 24.3069 7.50864 24.5 7.5H27.5C27.6931 7.50864 27.8754 7.59143 28.009 7.73114C28.1426 7.87084 28.2172 8.0567 28.2172 8.25C28.2172 8.4433 28.1426 8.62916 28.009 8.76886C27.8754 8.90857 27.6931 8.99136 27.5 9C27.3011 9 27.1103 9.07902 26.9697 9.21967C26.829 9.36032 26.75 9.55109 26.75 9.75V12.861C26.75 13.0426 26.8159 13.2181 26.9355 13.3548C27.0551 13.4914 27.2202 13.5801 27.4002 13.6042C29.2039 13.8469 30.9133 14.5552 32.36 15.6593C32.5042 15.7696 32.6836 15.8237 32.8648 15.8115C33.046 15.7994 33.2165 15.7218 33.3447 15.5933L35.5452 13.3927C35.615 13.3232 35.6703 13.2405 35.708 13.1495C35.7457 13.0585 35.7652 12.961 35.7652 12.8625C35.7652 12.764 35.7457 12.6665 35.708 12.5755C35.6703 12.4845 35.615 12.4018 35.5452 12.3323C35.4754 12.2628 35.4199 12.1801 35.3821 12.0891C35.3442 11.9981 35.3247 11.9006 35.3247 11.802C35.3247 11.7034 35.3442 11.6059 35.3821 11.5149C35.4199 11.4239 35.4754 11.3412 35.5452 11.2718C35.686 11.1312 35.8768 11.0522 36.0757 11.052C36.2747 11.0519 36.4655 11.1306 36.6065 11.271L38.7275 13.3927C38.8693 13.5338 38.9473 13.722 38.9473 13.9222C38.9473 14.1225 38.8693 14.3108 38.7275 14.4525C38.5849 14.589 38.395 14.6651 38.1976 14.6651C38.0002 14.6651 37.8104 14.589 37.6677 14.4525C37.5981 14.3828 37.5154 14.3274 37.4243 14.2897C37.3333 14.252 37.2357 14.2325 37.1371 14.2325C37.0386 14.2325 36.941 14.252 36.8499 14.2897C36.7589 14.3274 36.6762 14.3828 36.6065 14.4525L34.4053 16.653C34.2768 16.7814 34.1993 16.9521 34.1871 17.1334C34.175 17.3146 34.229 17.4941 34.3392 17.6385C35.4439 19.0847 36.1522 20.7939 36.3943 22.5975C36.4453 22.9718 36.7633 23.25 37.139 23.25H40.25C40.4489 23.25 40.6397 23.171 40.7803 23.0303C40.921 22.8897 41 22.6989 41 22.5C41.0086 22.3069 41.0914 22.1246 41.2311 21.991C41.3708 21.8574 41.5567 21.7828 41.75 21.7828C41.9433 21.7828 42.1292 21.8574 42.2689 21.991C42.4086 22.1246 42.4914 22.3069 42.5 22.5V25.5Z" fill="#C37739"/>
<path d="M26.7499 21.75C26.7499 20.0955 25.4044 18.75 23.7499 18.75C22.0954 18.75 20.7499 20.0955 20.7499 21.75C20.7499 23.4045 22.0954 24.75 23.7499 24.75C25.4044 24.75 26.7499 23.4045 26.7499 21.75ZM23.7499 23.25C22.9227 23.25 22.2499 22.5773 22.2499 21.75C22.2499 20.9228 22.9227 20.25 23.7499 20.25C24.5764 20.25 25.2499 20.9228 25.2499 21.75C25.2499 22.5773 24.5764 23.25 23.7499 23.25ZM26.7499 26.25C25.5094 26.25 24.4999 27.2595 24.4999 28.5C24.4999 29.7405 25.5094 30.75 26.7499 30.75C27.9904 30.75 28.9999 29.7405 28.9999 28.5C28.9999 27.2595 27.9904 26.25 26.7499 26.25ZM26.7499 29.25C26.5568 29.2414 26.3745 29.1586 26.2409 29.0189C26.1073 28.8792 26.0327 28.6933 26.0327 28.5C26.0327 28.3067 26.1073 28.1208 26.2409 27.9811C26.3745 27.8414 26.5568 27.7586 26.7499 27.75C26.943 27.7586 27.1254 27.8414 27.2589 27.9811C27.3925 28.1208 27.4671 28.3067 27.4671 28.5C27.4671 28.6933 27.3925 28.8792 27.2589 29.0189C27.1254 29.1586 26.943 29.2414 26.7499 29.25ZM31.2499 20.25C30.0094 20.25 28.9999 21.2595 28.9999 22.5C28.9999 23.7405 30.0094 24.75 31.2499 24.75C32.4904 24.75 33.4999 23.7405 33.4999 22.5C33.4999 21.2595 32.4904 20.25 31.2499 20.25ZM31.2499 23.25C31.0568 23.2414 30.8745 23.1586 30.7409 23.0189C30.6073 22.8792 30.5327 22.6933 30.5327 22.5C30.5327 22.3067 30.6073 22.1208 30.7409 21.9811C30.8745 21.8414 31.0568 21.7586 31.2499 21.75C31.443 21.7586 31.6254 21.8414 31.7589 21.9811C31.8925 22.1208 31.9671 22.3067 31.9671 22.5C31.9671 22.6933 31.8925 22.8792 31.7589 23.0189C31.6254 23.1586 31.443 23.2414 31.2499 23.25ZM9.58016 16.5L12.4962 16.515H12.4999C12.6988 16.5155 12.8898 16.437 13.0308 16.2967C13.1718 16.1564 13.2513 15.9658 13.2518 15.7669C13.2523 15.568 13.1737 15.377 13.0334 15.236C12.8931 15.095 12.7026 15.0155 12.5037 15.015L9.58766 15H9.58391C9.385 14.9995 9.19403 15.078 9.05303 15.2183C8.91203 15.3586 8.83253 15.5492 8.83203 15.7481C8.83154 15.947 8.91008 16.138 9.05038 16.279C9.19068 16.42 9.38125 16.4995 9.58016 16.5ZM9.58016 20.25L12.4789 20.265H12.4827C12.5812 20.2652 12.6787 20.2461 12.7698 20.2086C12.8609 20.1712 12.9437 20.1161 13.0135 20.0467C13.0834 19.9772 13.1388 19.8946 13.1767 19.8037C13.2146 19.7128 13.2343 19.6154 13.2345 19.5169C13.2348 19.4184 13.2156 19.3208 13.1782 19.2297C13.1407 19.1386 13.0857 19.0558 13.0162 18.986C12.9467 18.9162 12.8642 18.8607 12.7733 18.8228C12.6824 18.7849 12.5849 18.7652 12.4864 18.765L9.58766 18.75H9.58391C9.385 18.7495 9.19403 18.828 9.05303 18.9683C8.91203 19.1086 8.83253 19.2992 8.83203 19.4981C8.83154 19.697 8.91008 19.888 9.05038 20.029C9.19068 20.17 9.38125 20.2495 9.58016 20.25ZM9.58016 24L12.4632 24.015H12.4669C12.6658 24.0155 12.8568 23.937 12.9978 23.7967C13.1388 23.6564 13.2183 23.4658 13.2188 23.2669C13.2193 23.068 13.1407 22.877 13.0004 22.736C12.8601 22.595 12.6696 22.5155 12.4707 22.515L9.58766 22.5H9.58391C9.385 22.4995 9.19403 22.578 9.05303 22.7183C8.91203 22.8586 8.83253 23.0492 8.83203 23.2481C8.83154 23.447 8.91008 23.638 9.05038 23.779C9.19068 23.92 9.38125 23.9995 9.58016 24ZM9.58016 27.75L12.4459 27.765H12.4497C12.5481 27.7652 12.6457 27.7461 12.7368 27.7086C12.8279 27.6712 12.9107 27.6161 12.9805 27.5467C13.0504 27.4772 13.1058 27.3946 13.1437 27.3037C13.1816 27.2128 13.2013 27.1154 13.2015 27.0169C13.2018 26.9184 13.1826 26.8208 13.1452 26.7297C13.1077 26.6386 13.0527 26.5558 12.9832 26.486C12.9137 26.4162 12.8312 26.3607 12.7403 26.3228C12.6494 26.2849 12.5519 26.2652 12.4534 26.265L9.58766 26.25H9.58391C9.385 26.2495 9.19403 26.328 9.05303 26.4683C8.91203 26.6086 8.83253 26.7992 8.83203 26.9981C8.83154 27.197 8.91008 27.388 9.05038 27.529C9.19068 27.67 9.38125 27.7495 9.58016 27.75ZM9.58016 31.485L12.4467 31.5H12.4504C12.6493 31.5005 12.8403 31.422 12.9813 31.2817C13.1223 31.1414 13.2018 30.9508 13.2023 30.7519C13.2028 30.553 13.1242 30.362 12.9839 30.221C12.8436 30.08 12.6531 30.0005 12.4542 30L9.58841 29.985H9.58466C9.38575 29.9844 9.19474 30.0629 9.05367 30.2031C8.9126 30.3433 8.83301 30.5338 8.83241 30.7328C8.83181 30.9317 8.91026 31.1227 9.05049 31.2637C9.19072 31.4048 9.38125 31.4844 9.58016 31.485Z" fill="#C37739"/>
</g>
<defs>
<clipPath id="clip0_207_3676">
<rect width="48" height="48" fill="white" transform="translate(0.5)"/>
</clipPath>
</defs>
</svg>
