<svg width="49" height="48" viewBox="0 0 49 48" fill="none" xmlns="http://www.w3.org/2000/svg">
<path d="M33.1347 29.3784H29.7882V26.0319C29.7882 25.8418 29.7127 25.6595 29.5783 25.5251C29.4439 25.3907 29.2616 25.3152 29.0715 25.3152H23.9922C23.8021 25.3152 23.6198 25.3907 23.4854 25.5251C23.351 25.6595 23.2755 25.8418 23.2755 26.0319V29.3784H19.9284C19.7383 29.3784 19.556 29.4539 19.4216 29.5883C19.2872 29.7227 19.2117 29.905 19.2117 30.095V35.1744C19.2117 35.3645 19.2872 35.5467 19.4216 35.6812C19.556 35.8156 19.7383 35.8911 19.9284 35.8911H23.2755V39.2382C23.2755 39.4283 23.351 39.6105 23.4854 39.7449C23.6198 39.8793 23.8021 39.9548 23.9922 39.9548H29.0715C29.2616 39.9548 29.4439 39.8793 29.5783 39.7449C29.7127 39.6105 29.7882 39.4283 29.7882 39.2382V35.8911H33.1347C33.3247 35.8911 33.507 35.8156 33.6414 35.6812C33.7758 35.5467 33.8513 35.3645 33.8513 35.1744V30.095C33.8513 29.905 33.7758 29.7227 33.6414 29.5883C33.507 29.4539 33.3247 29.3784 33.1347 29.3784ZM32.418 34.4577H29.0715C28.8814 34.4577 28.6992 34.5332 28.5648 34.6676C28.4304 34.802 28.3549 34.9843 28.3549 35.1744V38.5215H24.7088V35.1744C24.7088 34.9843 24.6333 34.802 24.4989 34.6676C24.3645 34.5332 24.1822 34.4577 23.9922 34.4577H20.645V30.8117H23.9922C24.1822 30.8117 24.3645 30.7362 24.4989 30.6018C24.6333 30.4674 24.7088 30.2851 24.7088 30.095V26.7486H28.3549V30.095C28.3549 30.2851 28.4304 30.4674 28.5648 30.6018C28.6992 30.7362 28.8814 30.8117 29.0715 30.8117H32.418V34.4577Z" fill="#C37739" stroke="#C37739" stroke-width="0.1"/>
<path d="M41.7696 11.0926V11.0925L41.7661 11.0927C41.512 11.1101 40.9089 11.1071 40.1306 11.0987C39.9393 11.0966 39.7376 11.0942 39.5281 11.0917C38.8866 11.0842 38.1722 11.0757 37.4613 11.073C36.5182 11.0693 35.5802 11.0758 34.8253 11.1078C34.4479 11.1238 34.1154 11.1462 33.8507 11.177C33.6364 11.202 33.462 11.2329 33.3436 11.2722V4.52537V4.52532C33.3429 3.84255 33.0714 3.18793 32.5887 2.70511C32.1059 2.22229 31.4513 1.95073 30.7685 1.95H30.7685H9.26175V1.94995L9.25954 1.95005C9.07219 1.95835 8.89377 2.03248 8.75569 2.15939L8.75566 2.15936L8.75417 2.16085L2.66085 8.25417L2.66082 8.25414L2.6594 8.25569C2.53245 8.39374 2.45831 8.57218 2.45005 8.75955L2.45 8.75955V8.76175L2.45 39.4108L2.45 39.4108C2.45065 40.0937 2.72219 40.7483 3.20501 41.2311C3.68784 41.714 4.3425 41.9855 5.02532 41.9862H6.57322C6.74391 43.1077 7.30781 44.1327 8.16492 44.8774C9.03295 45.6316 10.1436 46.0478 11.2935 46.05H11.2936H41.7695H41.7696C43.0369 46.0484 44.2519 45.5443 45.1481 44.6481C46.0443 43.7519 46.5484 42.5369 46.55 41.2696V41.2695V15.873V15.873C46.5484 14.6056 46.0443 13.3906 45.1481 12.4944C44.2519 11.5983 43.0369 11.0941 41.7696 11.0926ZM29.8787 15.8729V18.2038H11.2936H11.2935C10.0262 18.2053 8.8113 18.7095 7.91524 19.6057C7.01918 20.5019 6.51518 21.7169 6.51379 22.9842V22.9842V40.5527H5.02537C4.72262 40.5525 4.4323 40.4321 4.21818 40.2179L4.18283 40.2533L4.21818 40.2179C4.00406 40.0038 3.88364 39.7135 3.88333 39.4108V9.47842H9.26175C9.45182 9.47842 9.63411 9.40291 9.76851 9.26851C9.90291 9.13411 9.97842 8.95182 9.97842 8.76175V3.38333H30.7684C31.0713 3.38361 31.3616 3.50403 31.5757 3.71815C31.7898 3.93227 31.9102 4.2226 31.9105 4.52541V11.9672C31.2871 12.4049 30.7773 12.9854 30.4238 13.6604C30.0663 14.3431 29.8792 15.1022 29.8787 15.8729V15.8729ZM36.6907 19.6372L36.6911 19.6372C36.9215 19.6354 37.0986 19.5462 37.218 19.4108C37.3365 19.2762 37.3957 19.0988 37.3967 18.9228C37.3978 18.7467 37.3408 18.5688 37.2227 18.4334C37.1038 18.2971 36.9256 18.207 36.6914 18.2039H36.6907H31.3117V15.8731C31.3128 14.9857 31.6657 14.1349 32.2932 13.5074C32.9207 12.8799 33.7715 12.527 34.6589 12.5259H41.7699C42.6572 12.5271 43.5079 12.8801 44.1353 13.5076C44.7627 14.1351 45.1156 14.9858 45.1166 15.8731V41.2694C45.1156 42.1568 44.7626 43.0076 44.1351 43.6351C43.5076 44.2626 42.6568 44.6156 41.7694 44.6166H11.2937C10.4063 44.6156 9.55564 44.2626 8.92825 43.635C8.30086 43.0075 7.94802 42.1568 7.94712 41.2694V22.9844C7.94802 22.097 8.30086 21.2463 8.92825 20.6188C9.55564 19.9913 10.4063 19.6383 11.2937 19.6372L36.6907 19.6372ZM4.89673 8.04509L8.54509 4.39673V8.04509H4.89673Z" fill="#C37739" stroke="#C37739" stroke-width="0.1"/>
<path d="M13.3254 7.44717H13.3256L28.5892 7.44717L28.5894 7.44717C28.8201 7.44651 28.997 7.3572 29.1158 7.22118C29.2338 7.08612 29.2922 6.90777 29.2928 6.73105C29.2934 6.55434 29.2361 6.3758 29.1183 6.24048C28.9997 6.10419 28.8221 6.01478 28.5894 6.01384H28.5892L13.3256 6.01384L13.3255 6.01384C13.0948 6.01453 12.9179 6.10385 12.799 6.23988C12.6811 6.37494 12.6227 6.55329 12.6221 6.73C12.6215 6.90671 12.6787 7.08524 12.7965 7.22055C12.9152 7.35684 13.0927 7.44624 13.3254 7.44717ZM13.3254 11.5103H13.3256H28.5892L28.5894 11.5103C28.8201 11.5097 28.997 11.4203 29.1158 11.2843C29.2338 11.1493 29.2922 10.9709 29.2928 10.7942C29.2934 10.6175 29.2361 10.4389 29.1183 10.3036C28.9997 10.1673 28.8221 10.0779 28.5894 10.077H28.5892H13.3256L13.3255 10.077C13.0948 10.0777 12.9179 10.167 12.799 10.3031C12.6811 10.4381 12.6227 10.6165 12.6221 10.7932C12.6215 10.9699 12.6787 11.1484 12.7965 11.2837C12.9152 11.42 13.0927 11.5094 13.3254 11.5103ZM7.23036 15.5741H7.23056H26.532H26.5322C26.7625 15.5735 26.9393 15.4842 27.0581 15.3482C27.1761 15.2132 27.2346 15.0348 27.2354 14.8581C27.2361 14.6814 27.1791 14.5028 27.0614 14.3675C26.9428 14.2311 26.7652 14.1417 26.5322 14.1408H26.532H7.23056H7.23042C7.00009 14.1414 6.82327 14.2307 6.70444 14.3667C6.58646 14.5017 6.52791 14.6801 6.52716 14.8568C6.52641 15.0335 6.58345 15.2121 6.70119 15.3474C6.81979 15.4838 6.9974 15.5732 7.23036 15.5741Z" fill="#C37739" stroke="#C37739" stroke-width="0.1"/>
</svg>
