<svg width="20" height="20" viewBox="0 0 20 20" fill="none" xmlns="http://www.w3.org/2000/svg">
<g clip-path="url(#clip0_1711_112)">
<path d="M13.4286 8.98401C13.0837 8.98401 12.8031 9.26462 12.8031 9.60954C12.8031 9.95446 13.0837 10.2351 13.4286 10.2351C13.7735 10.2351 14.0542 9.95446 14.0542 9.60954C14.0542 9.26462 13.7736 8.98401 13.4286 8.98401ZM6.54301 8.98401C6.19809 8.98401 5.91748 9.26462 5.91748 9.60954C5.91748 9.95446 6.19809 10.2351 6.54301 10.2351C6.88793 10.2351 7.1685 9.95446 7.1685 9.60954C7.1685 9.26462 6.88789 8.98401 6.54301 8.98401ZM10.5868 17.4118C10.3993 17.4269 10.1972 17.4346 9.98582 17.4346C9.77451 17.4346 9.5723 17.4269 9.38486 17.4118C9.30223 17.4052 9.22035 17.4316 9.15723 17.4854C9.0941 17.5391 9.05491 17.6157 9.04826 17.6983C9.04161 17.7809 9.06806 17.8628 9.12179 17.9259C9.17551 17.9891 9.25211 18.0283 9.33474 18.0349C9.53882 18.0513 9.75786 18.0596 9.98585 18.0596C10.2138 18.0596 10.4329 18.0513 10.6369 18.0349C10.6778 18.0316 10.7177 18.0203 10.7542 18.0016C10.7908 17.9829 10.8233 17.9572 10.8499 17.9259C10.8765 17.8947 10.8967 17.8585 10.9093 17.8194C10.9219 17.7804 10.9267 17.7392 10.9234 17.6983C10.9201 17.6574 10.9089 17.6175 10.8902 17.581C10.8715 17.5444 10.8458 17.5119 10.8145 17.4853C10.7832 17.4587 10.747 17.4385 10.7079 17.4259C10.6689 17.4133 10.6277 17.4085 10.5868 17.4118Z" fill="#C37739"/>
<path d="M19.0602 3.5294C18.5068 2.35701 17.7309 1.53107 16.7539 1.07443C15.9054 0.677863 14.9377 0.584611 13.9553 0.804828C12.1755 1.20374 10.7332 2.53016 10.4001 3.97624H9.59986C9.26674 2.53016 7.82437 1.20374 6.04463 0.804828C5.06226 0.58465 4.09451 0.677863 3.24603 1.07443C2.26905 1.53107 1.49312 2.35701 0.939782 3.5294C-0.277332 6.10801 -0.0507076 8.84872 0.192754 10.2529C0.535757 12.2314 1.28528 13.8823 2.01547 14.2677C2.26999 14.402 2.49134 14.4505 2.67843 14.4505C2.88306 14.4505 3.04667 14.3924 3.16758 14.325C3.91828 13.9063 4.02802 12.5956 4.03806 12.4475C4.04288 12.3759 4.02287 12.3048 3.9814 12.2461C3.93993 12.1875 3.87954 12.145 3.81038 12.1257C3.74116 12.1064 3.66741 12.1115 3.60151 12.1401C3.53562 12.1688 3.48159 12.2193 3.44851 12.283C3.33154 12.5086 3.14516 12.7141 3.06581 12.7353C3.03862 12.7154 2.9042 12.5923 2.77899 12.0438C2.51697 10.896 2.5526 9.42877 2.87423 8.11888C2.92012 7.93136 2.97297 7.74561 3.03269 7.56203C3.24861 8.17853 3.60317 8.57135 3.91195 8.81219C4.14 8.98978 4.39594 9.12831 4.66933 9.22211C4.71961 10.9853 5.27029 14.8057 5.29483 14.975C5.29506 14.9768 5.29533 14.9785 5.29565 14.9802C5.55344 16.5698 6.0526 18.0697 7.91138 18.3352C8.32419 18.9738 9.02715 19.3115 9.98596 19.3115C10.9446 19.3115 11.6475 18.9739 12.0603 18.3356C12.8375 18.2256 13.4213 17.899 13.8414 17.3401C14.2401 16.8096 14.4976 16.0818 14.6762 14.9803L14.677 14.975C14.7015 14.806 15.2503 10.999 15.3023 9.23161C15.4971 9.16797 15.7913 9.04362 16.088 8.81219C16.3968 8.57135 16.7514 8.17853 16.9673 7.56203C17.027 7.74561 17.0799 7.93136 17.1258 8.11888C17.4474 9.42874 17.483 10.896 17.221 12.0438C17.0958 12.5923 16.9614 12.7154 16.9342 12.7353C16.8548 12.7141 16.6685 12.5086 16.5518 12.2836C16.5189 12.2196 16.465 12.169 16.3991 12.1401C16.3332 12.1113 16.2594 12.1061 16.1901 12.1253C16.1208 12.1446 16.0603 12.1872 16.0187 12.2459C15.9772 12.3045 15.9571 12.3758 15.962 12.4475C15.972 12.5956 16.0817 13.9063 16.8325 14.325C16.9534 14.3925 17.1169 14.4505 17.3216 14.4505C17.5087 14.4505 17.7301 14.402 17.9846 14.2677C18.7148 13.8823 19.4643 12.2314 19.8073 10.2529C20.0507 8.84872 20.2773 6.10801 19.0602 3.5294ZM2.16963 12.1829C2.27773 12.6565 2.47997 13.2935 2.98612 13.3571C3.05706 13.3661 3.12547 13.3619 3.19094 13.3475C3.10734 13.5404 2.99897 13.7033 2.86314 13.7791C2.81091 13.8082 2.65198 13.8968 2.30718 13.7149C1.92945 13.5155 1.21899 12.3147 0.845593 10.3493C0.845007 10.3448 0.844733 10.3403 0.843952 10.3357C0.6101 8.9724 0.818129 7.81225 1.44554 6.98076C1.49546 6.91459 1.51705 6.83129 1.50557 6.7492C1.49408 6.66711 1.45045 6.59294 1.38428 6.54302C1.31811 6.49309 1.23482 6.4715 1.15272 6.48299C1.07063 6.49447 0.996465 6.5381 0.94654 6.60427C0.843119 6.74165 0.749243 6.88596 0.665575 7.03619C0.752341 6.00816 0.991115 4.88492 1.50499 3.79618C1.7476 3.28222 2.03587 2.84507 2.36723 2.48671C2.79868 2.10922 3.4546 1.68245 4.1671 2.32959C4.19747 2.35719 4.23298 2.37854 4.27161 2.39242C4.31023 2.40629 4.35121 2.41242 4.39221 2.41045C4.4332 2.40849 4.47341 2.39846 4.51053 2.38096C4.54765 2.36345 4.58095 2.3388 4.60855 2.30842C4.66427 2.24707 4.69335 2.16609 4.68938 2.08331C4.68541 2.00052 4.64872 1.9227 4.58737 1.86697C4.38618 1.68421 4.17428 1.55197 3.95379 1.47017C4.29234 1.3661 4.64847 1.31363 5.01445 1.31363C5.30733 1.31363 5.60658 1.34723 5.90789 1.41477C6.74735 1.60292 7.53657 2.03706 8.13019 2.63716C8.71989 3.23331 9.04547 3.92866 9.04743 4.59575C9.04379 4.6692 8.97777 5.57573 7.94392 6.21369C7.38831 6.5565 6.70618 6.59205 6.23629 6.56279C6.23863 5.568 5.94481 4.03562 5.34319 2.89168C5.32409 2.85535 5.29803 2.82313 5.26648 2.79688C5.23493 2.77062 5.19852 2.75084 5.15932 2.73866C5.12013 2.72648 5.07892 2.72215 5.03804 2.7259C4.99717 2.72965 4.95744 2.74142 4.92112 2.76053C4.84776 2.79911 4.79273 2.86525 4.76813 2.94441C4.74354 3.02356 4.75139 3.10924 4.78997 3.1826C5.24994 4.05718 5.52731 5.23804 5.59513 6.13806C5.31795 5.70907 5.04179 5.46158 4.78263 5.33321C4.12791 4.94774 2.94662 5.081 1.99934 5.65523C1.96378 5.67628 1.93274 5.70416 1.90802 5.73728C1.88331 5.77039 1.8654 5.80808 1.85535 5.84816C1.84529 5.88824 1.84328 5.92992 1.84944 5.97078C1.8556 6.01164 1.8698 6.05087 1.89121 6.08621C1.91263 6.12155 1.94085 6.15229 1.97422 6.17665C2.0076 6.20101 2.04548 6.21851 2.08566 6.22814C2.12585 6.23777 2.16754 6.23933 2.20834 6.23274C2.24913 6.22615 2.28821 6.21153 2.32332 6.18974C2.62624 6.00613 2.93459 5.88698 3.2229 5.8181C2.82981 6.29307 2.49751 7.03213 2.26726 7.96988C1.92351 9.36975 1.88699 10.9447 2.16963 12.1829ZM4.14014 5.86994C4.42114 5.7706 4.69168 5.97671 4.91506 6.25936C4.50791 6.19044 4.0781 6.17193 3.74018 6.17142C3.87191 6.0205 4.00692 5.91706 4.14014 5.86994ZM3.49136 6.80007C3.94715 6.78984 4.63745 6.81023 5.13098 6.94497C4.88725 7.45118 4.73637 7.99702 4.68551 8.55654C4.28047 8.36808 3.64353 7.9014 3.49136 6.80007ZM11.8406 16.1795C11.469 16.3611 10.9511 16.4651 10.2985 16.4897V15.8193C10.8511 15.6435 11.2374 15.0346 11.2374 14.6172C11.2374 14.4095 11.1489 14.2778 11.0747 14.204C10.857 13.9874 10.5101 13.9892 10.1085 13.9913C10.0283 13.9917 9.94365 13.9917 9.86344 13.9913C9.46192 13.9892 9.11501 13.9874 8.89729 14.204C8.82307 14.2779 8.73454 14.4095 8.73454 14.6172C8.73454 15.0345 9.12083 15.6435 9.6735 15.8193V16.4897C9.02094 16.4651 8.50304 16.3611 8.13144 16.1795C7.68815 15.9629 7.48168 15.6547 7.48168 15.2097C7.48168 13.9944 8.82791 13.0519 9.986 13.0519C11.3964 13.0519 12.4903 14.2118 12.4903 15.2097C12.4903 15.6547 12.2838 15.9629 11.8406 16.1795ZM9.98596 15.2437C9.67534 15.2437 9.38379 14.8467 9.36097 14.6418C9.46001 14.6143 9.69694 14.6155 9.86016 14.6164C9.94248 14.6168 10.0294 14.6168 10.1117 14.6164C10.2749 14.6155 10.5119 14.6143 10.6109 14.6418C10.5881 14.8467 10.2966 15.2437 9.98596 15.2437ZM9.98596 18.6865C9.22608 18.6865 8.7013 18.4412 8.40334 17.9431C8.39156 17.9088 8.3739 17.8767 8.35115 17.8484C8.21453 17.5807 8.13569 17.2484 8.11405 16.8498C8.60137 17.0294 9.22897 17.1207 9.986 17.1207C10.743 17.1207 11.3706 17.0295 11.8579 16.8498C11.8363 17.2484 11.7574 17.5808 11.6208 17.8484C11.598 17.8768 11.5804 17.9088 11.5686 17.9432C11.2706 18.4412 10.7458 18.6865 9.98596 18.6865ZM14.0588 14.8828C13.8994 15.8642 13.6716 16.5257 13.3417 16.9645C13.0955 17.2921 12.7785 17.5099 12.366 17.6323C12.4476 17.3311 12.4894 16.9917 12.4894 16.6155C12.4894 16.5823 12.4841 16.5504 12.4745 16.5203C12.895 16.1995 13.1154 15.7532 13.1154 15.2096C13.1154 14.5308 12.7777 13.8321 12.1889 13.2926C11.5796 12.7343 10.7972 12.4267 9.986 12.4267C9.17474 12.4267 8.39236 12.7342 7.78304 13.2926C7.19427 13.8321 6.85662 14.5308 6.85662 15.2096C6.85662 15.7532 7.07699 16.1995 7.49747 16.5203C7.48763 16.5511 7.48262 16.5832 7.48262 16.6155C7.48262 16.9917 7.52442 17.3311 7.60599 17.6323C7.19345 17.5099 6.87651 17.2921 6.63027 16.9645C6.30039 16.5257 6.07256 15.8641 5.91321 14.8828C5.89477 14.755 5.29084 10.5501 5.29084 8.9835C5.29084 8.33933 5.44386 7.70516 5.73409 7.13597C6.19409 7.21168 7.34089 7.32032 8.27227 6.74562C9.62694 5.90975 9.67132 4.66174 9.67257 4.60904L9.67264 4.60177V4.6013H10.3276V4.60177C10.3276 4.60419 10.3276 4.60661 10.3277 4.60904C10.329 4.66178 10.3733 5.90979 11.728 6.74562C12.6419 7.30954 13.7639 7.21551 14.2403 7.14023C14.5303 7.7114 14.6814 8.34293 14.6813 8.9835C14.6812 10.5499 14.0771 14.7555 14.0588 14.8828ZM15.2875 8.57052C15.2382 8.00869 15.088 7.46034 14.8441 6.95177C15.3392 6.81082 16.0454 6.78976 16.5088 6.80007C16.3535 7.93163 15.692 8.39203 15.2875 8.57052ZM15.898 6.18107C15.5957 6.19349 15.3244 6.22017 15.0839 6.26049C15.3075 5.97722 15.5783 5.7704 15.8598 5.86994C15.9936 5.91725 16.1291 6.02133 16.2614 6.17325C16.1493 6.17361 16.0267 6.17583 15.898 6.18107ZM17.6928 13.7149C17.3483 13.8966 17.1894 13.8084 17.1372 13.7793C16.9973 13.7015 16.8891 13.5379 16.807 13.3471C16.8731 13.3618 16.9422 13.3662 17.0138 13.3571C17.52 13.2935 17.7222 12.6565 17.8303 12.1829C18.113 10.9447 18.0765 9.36978 17.7327 7.96984C17.5037 7.03701 17.1737 6.30081 16.7833 5.82556C17.1169 5.91065 17.4395 6.04594 17.6767 6.1897C17.7118 6.211 17.7507 6.22518 17.7913 6.23141C17.8319 6.23765 17.8733 6.23583 17.9131 6.22606C17.953 6.21628 17.9905 6.19875 18.0236 6.17445C18.0567 6.15015 18.0847 6.11957 18.1059 6.08446C18.1489 6.01357 18.1619 5.92852 18.1422 5.84802C18.1225 5.76752 18.0715 5.69816 18.0007 5.65519C17.0535 5.08104 15.8723 4.94774 15.2176 5.33305C14.9584 5.46143 14.6821 5.70895 14.4049 6.13802C14.4727 5.23801 14.7501 4.05715 15.21 3.18257C15.2291 3.14624 15.2409 3.10651 15.2447 3.06564C15.2484 3.02477 15.2441 2.98356 15.2319 2.94436C15.2197 2.90517 15.1999 2.86876 15.1737 2.83721C15.1474 2.80566 15.1152 2.77959 15.0789 2.76049C15.0426 2.74138 15.0028 2.72961 14.962 2.72586C14.9211 2.72211 14.8799 2.72644 14.8407 2.73862C14.8015 2.7508 14.7651 2.77058 14.7335 2.79684C14.702 2.82309 14.6759 2.85531 14.6568 2.89164C14.0552 4.03558 13.7614 5.56796 13.7637 6.56275C13.2937 6.59205 12.6116 6.55646 12.0561 6.21369C11.0222 5.57577 10.9562 4.6692 10.9526 4.59575C10.9545 3.92866 11.2801 3.23331 11.8698 2.63716C12.4634 2.03706 13.2526 1.60292 14.0921 1.41477C14.7697 1.26292 15.4361 1.2832 16.0457 1.47044C15.8254 1.55229 15.6136 1.68441 15.4127 1.867C15.3823 1.8946 15.3576 1.9279 15.3401 1.96502C15.3226 2.00214 15.3126 2.04235 15.3106 2.08334C15.3087 2.12434 15.3148 2.16532 15.3287 2.20394C15.3425 2.24257 15.3639 2.27808 15.3915 2.30845C15.4191 2.33884 15.4524 2.3635 15.4895 2.38101C15.5266 2.39852 15.5668 2.40854 15.6078 2.41051C15.6488 2.41248 15.6898 2.40635 15.7284 2.39247C15.7671 2.37859 15.8026 2.35724 15.8329 2.32963C16.5454 1.68249 17.2014 2.10929 17.6329 2.48675C17.9642 2.84507 18.2525 3.28222 18.4951 3.79618C19.009 4.88492 19.2477 6.00816 19.3345 7.03619C19.2508 6.88596 19.157 6.74165 19.0535 6.60427C19.0029 6.53999 18.9292 6.4981 18.848 6.48759C18.7669 6.47708 18.6849 6.49879 18.6196 6.54806C18.5543 6.59733 18.5109 6.67023 18.4988 6.75113C18.4866 6.83202 18.5066 6.91446 18.5545 6.98076C19.182 7.81228 19.39 8.9724 19.1561 10.3357C19.1553 10.3403 19.1551 10.3448 19.1545 10.3493C18.781 12.3147 18.0705 13.5155 17.6928 13.7149Z" fill="#C37739"/>
</g>
<defs>
<clipPath id="clip0_1711_112">
<rect width="20" height="20" fill="white"/>
</clipPath>
</defs>
</svg>
