<svg width="49" height="48" viewBox="0 0 49 48" fill="none" xmlns="http://www.w3.org/2000/svg">
<path d="M45.4999 24C45.5031 23.281 45.3602 22.5689 45.0798 21.9068C44.7994 21.2448 44.3873 20.6467 43.8686 20.1487C45.0986 17.4847 43.6699 14.0227 40.9001 13.0252C40.903 12.8066 40.8929 12.588 40.8701 12.3705C44.4101 10.863 44.7266 5.94149 44.6021 5.28374C44.5921 5.10396 44.5176 4.93381 44.3925 4.80437C44.2673 4.67493 44.0997 4.59484 43.9204 4.57874C39.7849 4.20824 37.1014 5.76299 35.4244 7.48724C34.3819 4.78874 30.9746 3.41699 28.3519 4.63124C26.3809 2.47499 22.6189 2.47349 20.6486 4.63124C18.0266 3.42074 14.6201 4.78424 13.5761 7.48424C11.9006 5.75999 9.21789 4.20674 5.07939 4.57874C4.89992 4.59467 4.73218 4.67468 4.60685 4.80414C4.48153 4.93359 4.407 5.10384 4.39689 5.28374C4.38789 5.45324 4.19664 9.44924 6.98439 11.6647C7.54614 12.2025 8.30589 12.0967 8.09964 13.0252C5.33364 14.0227 3.89814 17.4825 5.13114 20.1487C2.97564 22.119 2.97339 25.881 5.13114 27.8512C3.90114 30.5137 5.32914 33.9765 8.09739 34.974C7.97439 37.914 10.5799 40.5277 13.5259 40.4025C14.5249 43.167 17.9824 44.601 20.6486 43.3687C22.6189 45.5242 26.3809 45.5272 28.3511 43.3687C31.0144 44.5972 34.4764 43.1715 35.4739 40.4025C38.4214 40.5285 41.0246 37.9147 40.9024 34.974C41.5762 34.7128 42.1899 34.3172 42.7059 33.8112C43.2219 33.3053 43.6295 32.6996 43.9039 32.031C44.1786 31.3675 44.317 30.6556 44.3109 29.9375C44.3049 29.2195 44.1545 28.51 43.8686 27.8512C44.3873 27.3533 44.7994 26.7552 45.0798 26.0931C45.3602 25.4311 45.5031 24.719 45.4999 24ZM43.0894 6.02999C42.8704 10.0252 40.1291 12.4065 35.2684 11.2822C36.3206 10.482 38.0396 9.45224 39.8486 9.53474C40.0469 9.54128 40.2398 9.46961 40.3858 9.33519C40.5317 9.20078 40.6189 9.01439 40.6286 8.81624C40.5424 7.06424 36.7151 8.63099 35.9786 9.06149C36.0491 8.96999 36.1324 8.88674 36.2021 8.79449C37.5109 7.32374 39.6656 5.90624 43.0894 6.03074V6.02999ZM5.91039 6.02999C9.36489 5.92649 11.5279 7.36799 12.8329 8.84699C12.8884 8.91224 12.9439 8.97674 12.9979 9.04199C12.2681 8.61674 8.45439 7.07099 8.37189 8.81699C8.37585 8.91541 8.39917 9.01208 8.44053 9.10148C8.48188 9.19088 8.54046 9.27124 8.61291 9.33797C8.68535 9.40471 8.77025 9.4565 8.86273 9.4904C8.95522 9.52429 9.05348 9.53961 9.15189 9.53549C10.9444 9.45824 12.6664 10.485 13.7231 11.2837C8.86464 12.4042 6.12714 10.0162 5.91039 6.02999ZM42.2861 28.038C43.5821 30.1567 42.3484 33.1522 39.9199 33.7185C39.7433 33.7651 39.5898 33.8746 39.4882 34.0263C39.3865 34.1781 39.3438 34.3617 39.3679 34.5427C39.5284 35.7562 39.1346 36.939 38.2864 37.7865C37.4389 38.634 36.2561 39.027 35.0426 38.868C34.8616 38.8432 34.6778 38.8857 34.526 38.9875C34.3742 39.0892 34.265 39.2431 34.2191 39.42C33.6499 41.8462 30.6566 43.0845 28.5379 41.7862C28.3797 41.6954 28.194 41.6653 28.0152 41.7015C27.8365 41.7376 27.6771 41.8376 27.5666 41.9827C26.1296 43.9852 22.8701 43.989 21.4331 41.9827C21.3228 41.8375 21.1634 41.7374 20.9846 41.7012C20.8058 41.6651 20.62 41.6953 20.4619 41.7862C19.9476 42.0848 19.3714 42.2609 18.778 42.3008C18.1847 42.3408 17.5901 42.2435 17.0404 42.0165C16.4881 41.7888 15.9964 41.4356 15.6043 40.985C15.2122 40.5343 14.9305 39.9985 14.7814 39.42C14.7348 39.2434 14.6253 39.0899 14.4736 38.9883C14.3218 38.8866 14.1382 38.8439 13.9571 38.868C11.4941 39.258 9.23889 37.0095 9.63189 34.5427C9.65583 34.3618 9.61297 34.1784 9.51136 34.0268C9.40974 33.8752 9.25634 33.7658 9.07989 33.7192C8.50163 33.5704 7.96599 33.2889 7.51543 32.897C7.06487 32.5052 6.71178 32.0138 6.48414 31.4617C6.25656 30.9118 6.15888 30.3168 6.19868 29.723C6.23849 29.1292 6.41471 28.5526 6.71364 28.038C6.80459 27.8799 6.83481 27.6941 6.79864 27.5153C6.76247 27.3365 6.66239 27.1771 6.51714 27.0667C4.51464 25.6297 4.51089 22.3702 6.51714 20.9332C6.66239 20.8229 6.76247 20.6635 6.79864 20.4847C6.83481 20.3059 6.80459 20.1201 6.71364 19.962C6.41489 19.4477 6.2387 18.8715 6.19877 18.2781C6.15884 17.6847 6.25623 17.0901 6.48339 16.5405C6.71106 15.9882 7.06423 15.4965 7.51492 15.1044C7.9656 14.7123 8.50141 14.4306 9.07989 14.2815C9.77889 14.0925 9.60939 13.4175 9.60714 12.8677C11.5976 13.2555 13.3406 12.9952 15.5291 12.3862C15.6604 12.3157 15.8254 12.2572 15.8989 12.1192C16.0669 11.949 16.0751 11.6782 16.0384 11.4547C16.0294 11.4247 15.6559 10.2112 14.6734 8.80949C14.7223 8.73976 14.7588 8.66213 14.7814 8.57999C15.3499 6.15299 18.3431 4.91624 20.4619 6.21374C20.62 6.30469 20.8058 6.3349 20.9846 6.29873C21.1634 6.26257 21.3228 6.16249 21.4331 6.01724C22.1674 5.05274 23.2849 4.49999 24.4999 4.49999C25.7149 4.49999 26.8331 5.05274 27.5666 6.01724C27.7939 6.31724 28.2094 6.40049 28.5379 6.21374C29.0522 5.91515 29.6284 5.73906 30.2218 5.69913C30.8151 5.6592 31.4097 5.7565 31.9594 5.98349C33.2119 6.46874 33.9371 7.57199 34.3264 8.81324C33.3439 10.2135 32.9704 11.424 32.9614 11.4547C32.9284 11.6355 32.9344 11.8185 33.0116 11.9895C33.0191 12.0457 33.2291 12.2572 33.3139 12.3045C34.8011 12.8542 36.3446 13.0245 37.5934 13.0492C38.2331 13.0492 38.8316 12.987 39.3934 12.8677C39.3964 13.0665 39.3934 13.2652 39.3679 13.4565C39.3436 13.6376 39.3862 13.8215 39.4879 13.9734C39.5895 14.1253 39.7432 14.2349 39.9199 14.2815C42.3469 14.8492 43.5844 17.844 42.2861 19.962C42.1952 20.1201 42.165 20.3059 42.2011 20.4847C42.2373 20.6635 42.3374 20.8229 42.4826 20.9332C44.4851 22.3695 44.4889 25.6305 42.4826 27.0667C42.3374 27.1771 42.2373 27.3365 42.2011 27.5153C42.165 27.6941 42.1952 27.8799 42.2861 28.038Z" fill="#C37739"/>
<path d="M36.0815 14.97C35.9715 14.9201 35.8511 14.8976 35.7306 14.9044C35.61 14.9112 35.4929 14.9471 35.3892 15.009C33.0425 16.4032 31.1967 14.727 31.1217 14.658C31.0199 14.5614 30.8931 14.4952 30.7557 14.467C30.6182 14.4388 30.4756 14.4496 30.344 14.4982C27.347 15.609 25.013 14.1082 24.9177 14.046C24.7943 13.9644 24.6496 13.9209 24.5017 13.9206C24.3538 13.9203 24.209 13.9634 24.0852 14.0445C23.9877 14.109 21.6537 15.6097 18.6552 14.4982C18.5237 14.4495 18.3812 14.4387 18.2439 14.467C18.1065 14.4952 17.9799 14.5614 17.8782 14.658C17.8595 14.676 15.9837 16.4197 13.6107 15.009C13.1855 14.7397 12.5682 15.015 12.4902 15.516C12.4287 15.846 11.024 23.6707 15.0282 28.0837C17.3795 30.6757 17.7837 32.8575 18.0785 34.4497C18.2585 35.4165 18.4047 36.2197 18.9597 36.8212C19.676 37.6612 21.1032 39.3322 23.4447 39.3322C23.9052 39.3315 24.431 39.2362 24.8997 39.2895C27.6335 39.6382 29.2595 37.737 30.0402 36.822C30.5952 36.2205 30.7415 35.4165 30.9215 34.4497C31.2162 32.8575 31.6205 30.6757 33.9717 28.0837C37.976 23.6707 36.5712 15.8467 36.5097 15.516C36.4876 15.3972 36.4371 15.2855 36.3625 15.1905C36.288 15.0954 36.1916 15.0197 36.0815 14.97ZM32.861 27.0757C30.2232 29.9842 29.756 32.5065 29.4462 34.176C29.2872 34.989 29.2212 35.5132 28.8995 35.847C28.217 36.6465 27.0807 37.9597 25.25 37.8067V33.9L27.0575 32.4975C27.836 31.8915 26.912 30.7147 26.1425 31.3125L24.5 32.58L22.8575 31.3125C22.7799 31.2519 22.691 31.2073 22.5961 31.1813C22.5011 31.1553 22.402 31.1484 22.3043 31.1609C22.2067 31.1735 22.1125 31.2053 22.0272 31.2544C21.9419 31.3036 21.8672 31.3692 21.8075 31.4475C21.7469 31.5251 21.7023 31.6139 21.6763 31.7089C21.6503 31.8038 21.6434 31.903 21.6559 32.0006C21.6685 32.0983 21.7003 32.1925 21.7495 32.2777C21.7986 32.363 21.8642 32.4377 21.9425 32.4975L23.75 33.9V37.8067C21.9185 37.9537 20.783 36.6465 20.1005 35.847C19.778 35.5155 19.7135 34.9875 19.553 34.176C19.244 32.5065 18.7767 29.9835 16.139 27.0757C13.4022 24.0592 13.6077 18.9075 13.8342 16.767C15.8217 17.4765 17.5932 16.7565 18.551 16.047C21.3267 16.911 23.5962 16.002 24.5 15.5325C25.4037 16.0005 27.6732 16.9102 30.449 16.0462C31.4075 16.7565 33.179 17.4772 35.1665 16.7662C35.3922 18.9075 35.5977 24.0592 32.861 27.0757Z" fill="#C37739"/>
</svg>
