<svg id="SvgjsSvg1001" width="288" height="288" xmlns="http://www.w3.org/2000/svg" version="1.1" xmlns:xlink="http://www.w3.org/1999/xlink" xmlns:svgjs="http://svgjs.com/svgjs"><defs id="SvgjsDefs1002"></defs><g id="SvgjsG1008"><svg xmlns="http://www.w3.org/2000/svg" viewBox="0 0 24 24" width="288" height="288"><path fill="#FFC107" d="M23.937 9.191a1.273 1.273 0 0 0-1.098-.877l-6.927-.629-2.739-6.411a1.276 1.276 0 0 0-2.346.001l-2.739 6.41-6.928.629a1.275 1.275 0 0 0-.724 2.232l5.236 4.592-1.544 6.801a1.275 1.275 0 0 0 1.897 1.378L12 19.746l5.973 3.571a1.276 1.276 0 0 0 1.898-1.378l-1.544-6.801 5.236-4.591c.385-.337.532-.869.374-1.356z" class="colorffc107 svgShape"></path></svg></g></svg>